<svg width="25" height="29" viewBox="0 0 25 29" fill="none" xmlns="http://www.w3.org/2000/svg">
<path d="M21.9909 0.5C23.6137 0.5 24.9227 1.8265 25 3.3875V28.5L21.9101 25.8482L20.2133 24.2872L18.3619 22.6562L19.1352 25.2287H2.93181C1.31354 25.2287 0 23.9862 0 22.34V3.39333C0 1.83233 1.31585 0.5035 2.93758 0.5035H21.9828L21.9909 0.5ZM14.9291 7.13017H14.8945L14.6613 7.3635C17.0541 8.0635 18.2118 9.15667 18.2118 9.15667C16.6697 8.37733 15.28 7.98767 13.8903 7.83017C12.8861 7.67267 11.8819 7.7555 11.0335 7.83017H10.8027C10.2602 7.83017 9.10591 8.0635 7.55921 8.68767C7.02018 8.9245 6.71084 9.07967 6.71084 9.07967C6.71084 9.07967 7.8674 7.91067 10.416 7.2865L10.2602 7.129C10.2602 7.129 8.33025 7.05433 6.24683 8.61067C6.24683 8.61067 4.1634 12.2787 4.1634 16.8007C4.1634 16.8007 5.31765 18.8307 8.48377 18.9077C8.48377 18.9077 8.94547 18.2858 9.41295 17.7387C7.63539 17.1927 6.94284 16.1007 6.94284 16.1007C6.94284 16.1007 7.09751 16.1777 7.32952 16.334H7.39877C7.4334 16.334 7.44956 16.3515 7.46803 16.369V16.376C7.4865 16.3947 7.50265 16.411 7.53728 16.411C7.91819 16.5697 8.29909 16.726 8.61074 16.8777C9.14862 17.1133 9.84002 17.3478 10.6884 17.503C11.7619 17.6605 12.9923 17.7363 14.3936 17.503C15.0861 17.3455 15.7787 17.1915 16.4712 16.8788C16.9214 16.6455 17.4754 16.4122 18.0837 16.019C18.0837 16.019 17.3912 17.111 15.5386 17.657C15.9195 18.2007 16.4562 18.8237 16.4562 18.8237C19.6235 18.7537 20.8539 16.7237 20.9232 16.81C20.9232 12.295 18.8282 8.62 18.8282 8.62C16.941 7.20367 15.175 7.15 14.8633 7.15L14.928 7.12667L14.9291 7.13017ZM15.123 12.2787C15.9345 12.2787 16.5889 12.9787 16.5889 13.8362C16.5889 14.6995 15.931 15.3995 15.123 15.3995C14.3151 15.3995 13.6571 14.6995 13.6571 13.8432C13.6594 12.9798 14.3185 12.2822 15.123 12.2822V12.2787ZM9.87926 12.2787C10.6872 12.2787 11.3406 12.9787 11.3406 13.8362C11.3406 14.6995 10.6826 15.3995 9.87465 15.3995C9.06667 15.3995 8.40874 14.6995 8.40874 13.8432C8.40874 12.9798 9.06667 12.2822 9.87465 12.2822L9.87926 12.2787Z" fill="#F4DEFF"/>
</svg>
