<svg width="25" height="25" viewBox="0 0 25 25" fill="none" xmlns="http://www.w3.org/2000/svg">
<path d="M22.2222 0H2.77778C1.24306 0 0 1.24306 0 2.77778V22.2222C0 23.7569 1.24306 25 2.77778 25H22.2222C23.7569 25 25 23.7569 25 22.2222V2.77778C25 1.24306 23.7569 0 22.2222 0ZM20.7042 17.6167L18.2944 17.65C18.2944 17.65 17.775 17.7514 17.0944 17.2819C16.1931 16.6625 15.3431 15.0514 14.6806 15.2611C14.0083 15.475 14.0292 16.925 14.0292 16.925C14.0292 16.925 14.0347 17.1806 13.8806 17.3472C13.7139 17.5264 13.3875 17.5083 13.3875 17.5083H12.3083C12.3083 17.5083 9.92778 17.7056 7.82917 15.5181C5.54306 13.1333 3.52361 8.42639 3.52361 8.42639C3.52361 8.42639 3.40556 8.12917 3.53194 7.97778C3.675 7.80972 4.06111 7.80555 4.06111 7.80555L6.64028 7.79306C6.64028 7.79306 6.88333 7.83611 7.05833 7.96389C7.20139 8.06944 7.28333 8.26805 7.28333 8.26805C7.28333 8.26805 7.7 9.325 8.25278 10.2819C9.33056 12.1472 9.83194 12.5556 10.1972 12.3556C10.7306 12.0639 10.5708 9.71944 10.5708 9.71944C10.5708 9.71944 10.5806 8.86806 10.3028 8.48889C10.0861 8.19306 9.67917 8.10555 9.5 8.08333C9.35417 8.06389 9.59167 7.72639 9.90139 7.57361C10.3653 7.34722 11.1861 7.33333 12.1542 7.34305C12.9083 7.35139 13.1264 7.39722 13.4208 7.46944C14.3111 7.68472 14.0083 8.51528 14.0083 10.5083C14.0083 11.1472 13.8931 12.0444 14.3528 12.3403C14.5514 12.4681 15.0347 12.3597 16.2417 10.3042C16.8153 9.32917 17.2444 8.18333 17.2444 8.18333C17.2444 8.18333 17.3389 7.97917 17.4847 7.89167C17.6347 7.80139 17.8361 7.82917 17.8361 7.82917L20.5514 7.8125C20.5514 7.8125 21.3667 7.71389 21.5 8.08472C21.6389 8.47222 21.1958 9.37639 20.0861 10.8556C18.2653 13.2861 18.0625 13.0597 19.575 14.4653C21.0194 15.8083 21.3181 16.4611 21.3681 16.5431C21.9653 17.5375 20.7042 17.6167 20.7042 17.6167Z" fill="#F4DEFF"/>
</svg>
